<svg width="32" height="32" viewBox="0 0 32 32" fill="none" xmlns="http://www.w3.org/2000/svg">
<path d="M11.9995 29.3332H19.9995C26.6662 29.3332 29.3329 26.6665 29.3329 19.9998V11.9998C29.3329 5.33317 26.6662 2.6665 19.9995 2.6665H11.9995C5.33285 2.6665 2.66618 5.33317 2.66618 11.9998V19.9998C2.66618 26.6665 5.33285 29.3332 11.9995 29.3332Z" stroke="#009974" stroke-width="2" stroke-linecap="round" stroke-linejoin="round"/>
<path d="M9.33284 10.9998C10.6662 12.3331 12.8395 12.3331 14.1862 10.9998" stroke="#009974" stroke-width="2" stroke-miterlimit="10" stroke-linecap="round" stroke-linejoin="round"/>
<path d="M17.8129 10.9998C19.1462 12.3331 21.3195 12.3331 22.6662 10.9998" stroke="#009974" stroke-width="2" stroke-miterlimit="10" stroke-linecap="round" stroke-linejoin="round"/>
<path d="M21.9995 18.5332C21.9995 21.8532 19.3195 24.5332 15.9995 24.5332C12.6795 24.5332 9.99951 21.8532 9.99951 18.5332" stroke="#009974" stroke-width="2" stroke-miterlimit="10" stroke-linecap="round" stroke-linejoin="round"/>
</svg>
