<svg width="36" height="36" viewBox="0 0 36 36" fill="none" xmlns="http://www.w3.org/2000/svg">
<path d="M8.06999 10.6C8.86999 7.14 14.08 7.14 14.87 10.6C15.34 12.63 14.05 14.35 12.93 15.42C12.11 16.2 10.82 16.19 9.99999 15.42C8.88999 14.35 7.59999 12.63 8.06999 10.6Z" stroke="white" stroke-width="1.5"/>
<path d="M21.07 22.6C21.87 19.14 27.11 19.14 27.91 22.6C28.38 24.63 27.09 26.35 25.96 27.42C25.14 28.2 23.84 28.19 23.02 27.42C21.89 26.35 20.6 24.63 21.07 22.6Z" stroke="white" stroke-width="1.5"/>
<path d="M18 11H20.68C22.53 11 23.39 13.29 22 14.51L14.01 21.5C12.62 22.71 13.48 25 15.32 25H18" stroke="white" stroke-width="1.5" stroke-linecap="round" stroke-linejoin="round"/>
<path d="M11.4862 11.5H11.4978" stroke="white" stroke-width="2" stroke-linecap="round" stroke-linejoin="round"/>
<path d="M24.4862 23.5H24.4978" stroke="white" stroke-width="2" stroke-linecap="round" stroke-linejoin="round"/>
</svg>
